<?xml version="1.0" encoding="UTF-8"?>
<svg width="24px" height="24px" viewBox="0 0 24 24" version="1.1" xmlns="http://www.w3.org/2000/svg" xmlns:xlink="http://www.w3.org/1999/xlink">
    <!-- Generator: Sketch 60.1 (88133) - https://sketch.com -->
    <title>icon_delete_white_nor</title>
    <desc>Created with Sketch.</desc>
    <g id="icon_delete_white_nor" stroke="none" stroke-width="1" fill="none" fill-rule="evenodd">
        <g transform="translate(-1.000000, -1.000000)" fill="#FFFFFF" id="Combined-Shape">
            <path d="M13,4 C13.5522847,4 14,4.44771525 14,5 L14,12 L21,12 C21.5522847,12 22,12.4477153 22,13 C22,13.5522847 21.5522847,14 21,14 L14,14 L14,21 C14,21.5522847 13.5522847,22 13,22 C12.4477153,22 12,21.5522847 12,21 L12,14 L5,14 C4.44771525,14 4,13.5522847 4,13 C4,12.4477153 4.44771525,12 5,12 L12,12 L12,5 C12,4.44771525 12.4477153,4 13,4 Z" transform="translate(13.000000, 13.000000) rotate(45.000000) translate(-13.000000, -13.000000) "></path>
        </g>
    </g>
</svg>