<?xml version="1.0" encoding="UTF-8"?>
<svg width="32px" height="32px" viewBox="0 0 32 32" version="1.1" xmlns="http://www.w3.org/2000/svg" xmlns:xlink="http://www.w3.org/1999/xlink">
    <!-- Generator: Sketch 60.1 (88133) - https://sketch.com -->
    <title>icon_menu_setting_nor</title>
    <desc>Created with Sketch.</desc>
    <g id="icon_menu_setting_nor" stroke="none" stroke-width="1" fill="none" fill-rule="evenodd">
        <g stroke="#333333" stroke-width="2">
            <path d="M14.8318938,5.00002208 L14.0647515,7.69358379 L13.5490072,7.85460035 C13.053797,8.00920611 12.5781434,8.20773731 12.1183066,8.45079754 L11.6379235,8.70471806 L11.1634991,8.43983137 L9.18721826,7.33640527 L7.42278734,9.10062866 L8.78764778,11.5628602 L8.53574586,12.0410429 C8.2982504,12.491878 8.10172036,12.9642902 7.94666323,13.4580438 L7.78552659,13.9711567 L7.26859645,14.119592 L5.08431493,14.7467923 L5.08428211,17.2523568 L7.78509374,18.0187614 L7.94674575,18.534012 C8.10439355,19.0364996 8.30195487,19.5149546 8.535858,19.9592297 L8.7880325,20.4382093 L8.52487493,20.9112438 L7.42282814,22.8921445 L9.18232601,24.6581153 L11.6380327,23.287014 L12.1184773,23.5410857 C12.6004259,23.7959528 13.0735744,23.9970988 13.5488778,24.1454189 L14.0641751,24.3062193 L14.2124996,24.8252452 L14.8339514,27.0000221 L17.3348741,27.0000221 L18.1044275,24.3061541 L18.6198906,24.1453786 C19.0953914,23.9970675 19.5684634,23.7959541 20.0499703,23.541187 L20.5305124,23.2869305 L21.0051835,23.5519858 L22.9861546,24.6582397 L24.745789,22.8921698 L23.3804763,20.4379751 L23.6329744,19.9588628 C23.8670005,19.5148008 24.064454,19.036607 24.2217621,18.5344307 L24.3832727,18.0188388 L24.9030475,17.8713432 L27.0843223,17.2524095 L27.0843422,14.7468086 L24.3828404,13.9710786 L24.2218444,13.4576248 C24.067112,12.9641472 23.8706925,12.4920007 23.6330868,12.0414102 L23.3808613,11.5630948 L23.6430223,11.0901519 L24.7458679,9.1006377 L22.9813793,7.33630346 L20.5306215,8.70480155 L20.050141,8.45069624 C19.5906933,8.20771428 19.1151444,8.00922677 18.6197613,7.85464073 L18.1038512,7.69364913 L17.9558668,7.17385858 L17.3370052,5.00002208 L14.8318938,5.00002208 Z M8.89223404,24.8200832 C8.88814895,24.8222856 8.88408264,24.8245557 8.88003629,24.8268936 L8.89223415,24.8200831 Z M14.489138,27.0000221 C14.4875351,27.0000147 14.4859298,27.0000146 14.4843223,27.0000221 L14.4891381,27.0000221 Z M17.2423517,27.3239026 C17.2413978,27.3271177 17.2404739,27.3303515 17.2395804,27.3336037 L17.2423519,27.3239017 Z M23.2874943,24.82652 L23.2997015,24.8333369 C23.2956444,24.8310017 23.2915751,24.8287294 23.2874943,24.82652 Z M24.9925123,22.6445442 L24.995162,22.6418848 C24.9942747,22.6427692 24.9933914,22.6436557 24.9925124,22.6445441 Z M27.0843197,17.5907352 C27.0842905,17.5938251 27.0842904,17.5969228 27.0843196,17.6000281 L27.0843197,17.5907338 Z M24.9928259,9.34757406 C24.993229,9.34797846 24.993633,9.34838242 24.9940379,9.34878595 L24.9928258,9.34757405 Z M22.7362266,7.09117217 L22.7287464,7.08369265 C22.7312236,7.0862185 22.733717,7.08871166 22.7362265,7.09117206 Z" id="Fill-1"></path>
            <circle id="椭圆形" cx="16" cy="16" r="3"></circle>
        </g>
    </g>
</svg>